<?xml version="1.0" encoding="utf-8"?>
<!-- Generator: Adobe Illustrator 17.0.1, SVG Export Plug-In . SVG Version: 6.00 Build 0)  -->
<!DOCTYPE svg PUBLIC "-//W3C//DTD SVG 1.1//EN" "http://www.w3.org/Graphics/SVG/1.1/DTD/svg11.dtd">
<svg version="1.1" id="Layer_1" xmlns="http://www.w3.org/2000/svg" xmlns:xlink="http://www.w3.org/1999/xlink" x="0px" y="0px"
	 width="1000px" height="400px" viewBox="0 0 1000 400" enable-background="new 0 0 1000 400" xml:space="preserve">
<circle fill="#B1C6B9" cx="508.289" cy="209.522" r="125.097"/>
<g>
	<path d="M355.578,249.925v35.737h-45.743v79.097h-38.119v-79.097H123.528V246.59L277.434,26.928h32.401v222.997H355.578z
		 M271.716,84.583h-0.953L158.311,249.925h113.404V84.583z"/>
	<path display="none" d="M396.079,160.345c0.633-13.342,2.218-26.363,4.765-39.072c2.539-12.701,6.194-24.777,10.959-36.213
		c4.765-11.436,11.272-21.442,19.536-30.019c8.257-8.577,18.658-15.404,31.21-20.489c12.545-5.077,27.554-7.624,45.028-7.624
		c17.466,0,32.475,2.546,45.028,7.624c12.545,5.085,22.946,11.912,31.21,20.489c8.257,8.577,14.771,18.583,19.536,30.019
		c4.766,11.436,8.413,23.512,10.959,36.213c2.539,12.709,4.125,25.73,4.765,39.072c0.633,13.341,0.953,26.207,0.953,38.595
		c0,12.389-0.32,25.254-0.953,38.596c-0.64,13.341-2.226,26.371-4.765,39.072c-2.546,12.709-6.194,24.703-10.959,35.975
		c-4.765,11.279-11.279,21.204-19.536,29.781c-8.264,8.577-18.583,15.329-30.972,20.251c-12.389,4.921-27.48,7.385-45.266,7.385
		c-17.474,0-32.483-2.465-45.028-7.385c-12.552-4.921-22.953-11.674-31.21-20.251c-8.264-8.577-14.771-18.501-19.536-29.781
		c-4.765-11.272-8.421-23.266-10.959-35.975c-2.546-12.701-4.132-25.73-4.765-39.072c-0.641-13.342-0.953-26.207-0.953-38.596
		C395.126,186.552,395.439,173.687,396.079,160.345z M439.201,241.11c0.789,15.724,3.335,30.495,7.624,44.313
		c4.288,13.818,11.197,25.492,20.727,35.022c9.53,9.53,22.871,14.295,40.025,14.295c17.153,0,30.495-4.765,40.025-14.295
		c9.53-9.53,16.439-21.204,20.728-35.022c4.288-13.818,6.827-28.589,7.624-44.313c0.789-15.724,1.191-29.937,1.191-42.646
		c0-8.257-0.082-17.392-0.239-27.398c-0.164-10.006-0.953-20.012-2.382-30.019c-1.429-10.006-3.499-19.774-6.194-29.304
		c-2.703-9.53-6.671-17.868-11.913-25.016c-5.241-7.147-11.838-12.94-19.774-17.392c-7.944-4.445-17.63-6.671-29.066-6.671
		c-11.436,0-21.129,2.226-29.066,6.671c-7.944,4.452-14.533,10.245-19.774,17.392c-5.241,7.148-9.217,15.486-11.912,25.016
		c-2.703,9.53-4.765,19.298-6.194,29.304c-1.43,10.006-2.226,20.012-2.383,30.019c-0.164,10.006-0.238,19.141-0.238,27.398
		C438.01,211.173,438.405,225.386,439.201,241.11z"/>
	<path d="M699.126,249.925V26.928h32.402L885.433,246.59v39.072H737.245v79.097h-38.119v-79.097H347.833l-6.667-35.737H699.126z
		 M737.245,249.925H850.65L738.198,84.583h-0.953V249.925z"/>
</g>
<g>
	<path fill="#2F2823" d="M433.774,166.011c0,0-7.946-18.919-5.676-24.973c2.27-6.054,7.568-24.216,12.487-31.784
		c4.919-7.568,19.297-26.487,24.216-31.784c4.919-5.297,14-13.243,16.27-15.514c2.27-2.27,22.324-4.541,22.324-4.541
		c2.649,0.378,13.275-1.392,17.784,0c4.508,1.392,8.703,7.568,9.838,9.459s3.405,0.757,6.054,4.541
		c2.649,3.784,34.054,28.378,35.946,33.297s14,12.418,15.135,21.912s6.58,21.98,3.101,26.521c-3.479,4.541-3.913,2.006-5.749,10.216
		c-1.837,8.21,2.27,4.162,1.135,8.703s-4.919,8.324-4.919,8.324"/>
	<path fill="#BC917D" d="M449.271,254.552c0,0,3.784,27.622-5.676,34.433c-9.46,6.811,22.703,51.838,63.946,49.946
		c41.243-1.892,66.595-27.622,63.946-44.27c-2.016-8.287-4.919-6.054-6.054-10.216s0.378-18.541,0.378-18.541l1.514-28.757
		l16.27-31.027c0,0,6.054,5.676,9.081,2.649s4.919-30.649-4.162-40.108c-9.081-9.459-13.622-23.46-14.378-26.108
		c-0.757-2.649,1.135-17.027-3.405-26.487c-4.541-9.459-9.459-46.162-56.379-53.73c-46.919-7.568-70.301,46.541-72.421,54.487
		s-2.877,29.135-5.147,34.811c-2.27,5.676,0,26.108,0,26.108s-10.595-9.459-11.351-4.162c-0.757,5.297-6.811,42.379,3.405,37.838
		c10.216-4.541,21.946,0,21.946,0L449.271,254.552z"/>
	<path fill="#D37777" d="M584.747,168.883c0,0-3.784-75.899-6.432-80.44s-31.027-9.838-60.162-5.297
		c-29.135,4.541-25.73,1.135-27.622,0c-1.892-1.135-48.433-0.757-55.622,7.189c-5.297,6.054-2.649,18.919-2.649,18.919
		l-0.662,52.973c0,0,3.311,2.27,5.203-10.595s1.514-43.135,1.514-43.135l0.378-6.811c0,0-1.892,24.216,19.676,22.324
		c21.568-1.892,27.622-6.054,27.622-6.054s11.351-18.919,15.514-23.081s12.108,0,12.108,0l1.875,9.081
		c0,0,11.747,18.474,26.125,17.94c13.622,3.25,23.46,2.804,27.243,0c3.784-2.804,4.162-26.264,4.162-26.264
		s4.919,74.007,8.324,73.629C584.747,168.883,584.747,168.883,584.747,168.883z"/>
	<path fill="#161212" d="M443.99,94.875c0,0,10.216-9.459,23.838-9.459c13.622,0,26.487,0,28,7.189s-10.216,21.946-23.46,24.216
		c-13.243,2.27-20.432,6.054-26.865,0C439.071,110.767,443.99,94.875,443.99,94.875z"/>
	<path fill="#161212" d="M517.017,91.47c0,0,5.297-7.568,26.487-6.054c21.189,1.514,23.081,3.784,25.351,8.703
		c2.27,4.919,4.162,20.811-4.541,23.081s-23.46,0-31.784-3.027C524.207,111.146,517.396,98.281,517.017,91.47z"/>
	<path opacity="0.5" fill="#965A5B" enable-background="new    " d="M481.071,158.065c0,0,11.351-20.054,23.838-20.054
		s17.027-0.378,32.162,21.946c-1.135,6.054-12.487-6.432-28-6.054C493.558,154.281,486.747,160.713,481.071,158.065z"/>
	<path fill="#7D6155" d="M498.855,116.065c0,0,10.216,5.297,0,9.081S495.951,113.988,498.855,116.065z"/>
	<path fill="#7D6155" d="M513.612,115.866c0,0-4.541,10.136,3.405,9.897c7.946-0.239,6.054-3.644,2.649-6.671
		C516.261,116.065,513.612,115.866,513.612,115.866z"/>
	<path fill="#2F2823" d="M591.18,231.092c-0.757-7.189-5.297-14.729-7.189-14.743c-1.892-0.014-0.378-3.798,0.378-6.825
		s7.189-9.838,4.541-13.622c-2.649-3.784-6.054-16.649-5.676-21.189c0.378-4.541,1.892-6.141-1.135-13.097
		c-3.027-6.957-1.892-12.632-3.405-14.524c-1.514-1.892-2.27,28.757-7.189,28.757s-1.513-9.081-8.324-17.784
		c-6.811-8.703-24.595-19.676-31.027-26.487c-6.432-6.811-17.34-5.297-19.832-2.649c-2.492,2.649-4.644,2.27-4.644,2.27
		s-5.794-5.229-11.47-4.506c-5.676,0.722-15.135,11.317-15.135,11.317s-20.432,20.433-21.946,26.865
		c-4.162-1.135-9.838,16.27-9.838,16.27s-14.378-22.179-11.73-31.333c0,0-10.595,18.089-8.703,25.279
		c1.892,7.189-0.226,15.135-0.226,15.135s-4.693,4.162-2.801,7.189c1.892,3.027,7.118,9.081,5.64,9.838
		c-1.478,0.757-6.397,3.784-2.991,9.081c3.405,5.297,4.469,14.378,2.991,15.135c-1.478,0.757-10.701,11.351-6.09,14.757
		c4.612,3.405,10.287,1.892,9.909,3.027c-0.378,1.135-6.811,3.027-1.514,6.054c5.297,3.027,10.973,2.649,11.351,4.919
		c0.378,2.27,6.432,8.703,8.324,12.108c1.892,3.405,2.27,8.324,5.676,9.838c3.405,1.514,10.216,0,10.973,0
		c0.757,0,6.054,0.21,10.973,0.673c4.919,0.463,15.554-3.321,17.425-4.456c1.872-1.135,5.656-6.054,9.061-7.568
		c3.405-1.514,9.904-3.784,9.904-3.784s5.61,6.432,7.123,7.946c1.513,1.514,14.378,4.541,15.514,4.162
		c1.135-0.378,11.351-2.649,13.243-0.378c1.892,2.27,12.487-2.649,12.487-6.054c0-3.405,3.784-6.432,6.432-9.459
		c2.649-3.027,10.595-8.324,10.973-11.73c0.378-3.405,0.378-11.351,1.892-15.135C586.639,232.606,591.937,238.281,591.18,231.092z
		 M546.531,166.768c-4.541,2.649-12.487,12.108-15.135,7.189c-2.649-4.919-9.639-9.546-8.793-12.341
		c0.847-2.795-8.613,0.903-12.018,0c-3.405-0.903-9.041-0.232-12.088,0c-3.047,0.232-3.425,3.638-3.047,7.043
		c0.378,3.405,3.087,8.703-1.852,8.703s-25.013-1.978-24.635-15.746c0,0,23.878-24.362,29.534-25.497c5.656-1.135,18.965,0,18.965,0
		s15.448,13.243,22.258,17.784S551.072,164.119,546.531,166.768z"/>
	<g>
		<path fill="#78624E" d="M492.953,108.059c0,0,1.307-1.48,3.806-3.066c0.622-0.398,1.313-0.808,2.078-1.18
			c0.76-0.383,1.584-0.753,2.47-1.061c0.888-0.296,1.817-0.604,2.802-0.766c0.977-0.193,1.998-0.28,3.022-0.304
			c1.026,0.024,2.058,0.116,3.052,0.35c1,0.202,1.936,0.592,2.806,1.008c0.865,0.436,1.637,0.963,2.31,1.52
			c0.324,0.294,0.662,0.551,0.942,0.849c0.273,0.301,0.537,0.592,0.79,0.872c0.459,0.594,0.888,1.127,1.183,1.655
			c0.305,0.52,0.586,0.958,0.753,1.357c0.359,0.782,0.543,1.229,0.543,1.229s-0.332-0.366-0.874-1.008
			c-0.253-0.334-0.642-0.676-1.024-1.106c-0.384-0.431-0.896-0.839-1.398-1.32c-0.546-0.438-1.136-0.899-1.796-1.322
			c-0.66-0.423-1.395-0.787-2.162-1.124c-0.389-0.156-0.796-0.286-1.203-0.422c-0.424-0.085-0.833-0.234-1.269-0.298
			c-0.858-0.183-1.757-0.236-2.654-0.241c-1.801-0.02-3.618,0.313-5.299,0.748c-0.835,0.242-1.65,0.475-2.408,0.751
			c-0.758,0.276-1.476,0.549-2.132,0.825C494.669,107.116,492.953,108.059,492.953,108.059z"/>
	</g>
</g>
<g display="none">
	<path display="inline" fill="#2F2823" d="M909.693,346.528c0,0,18.996,7.759,21.672,13.645
		c2.676,5.886,11.772,22.475,13.645,31.304s5.084,32.374,5.351,39.598c0.268,7.224-0.535,19.264-0.535,22.475
		c0,3.211-12.575,18.996-12.575,18.996c-2.14,1.605-8.403,10.371-12.575,12.575s-11.505,0.803-13.645,0.268
		c-2.14-0.535-2.943,1.873-7.492,1.07c-4.548-0.803-44.147,4.013-48.963,1.873c-4.816-2.14-18.68,1.119-26.196-4.792
		c-7.516-5.91-20.195-10.89-20.945-16.561c-0.751-5.671,1.348-4.185-3.159-11.289c-4.507-7.104-4.548-1.338-6.956-5.351
		c-2.408-4.013-2.408-9.364-2.408-9.364"/>
	<path display="inline" fill="#BC917D" d="M836.126,294.879c0,0-22.207-16.856-20.334-28.361c1.873-11.505-52.708-20.602-80.534,9.9
		c-27.826,30.501-27.558,66.621-13.913,76.521c7.286,4.434,7.759,0.803,11.505,2.943c3.746,2.14,12.843,13.378,12.843,13.378
		l19.264,21.404l10.435,33.444c0,0-8.294,0.268-8.294,4.548s18.194,25.15,31.304,25.418c13.11,0.268,26.22,6.956,28.628,8.294
		c2.408,1.338,11.237,12.843,21.137,16.321c9.9,3.478,39.331,25.953,77.859-1.873s16.801-82.619,12.681-89.737
		c-4.119-7.118-18.567-22.636-20.975-28.255c-2.408-5.619-18.461-18.461-18.461-18.461s14.18-0.803,10.97-5.084
		c-3.211-4.281-25.15-34.782-29.163-24.348c-4.013,10.435-15.518,15.518-15.518,15.518L836.126,294.879z"/>
	<path display="inline" fill="#D37777" d="M800.907,451.252c0,0,56.344,50.993,61.428,52.331
		c5.083,1.338,28.896-14.983,46.287-38.795c17.391-23.812,17.391-18.996,19.531-19.532c2.14-0.535,34.782-33.712,34.247-44.414
		c-0.535-8.027-11.505-15.251-11.505-15.251l-36.99-37.926c0,0-3.946,0.736,3.813,11.17s29.431,31.571,29.431,31.571l4.548,5.084
		c0,0-15.786-18.461-29.699-1.873s-15.251,23.812-15.251,23.812s5.351,21.404,5.351,27.291c0,5.886-8.562,8.562-8.562,8.562
		l-7.747-5.096c0,0-21.369-4.757-31.159,5.788c-11.93,7.334-18.571,14.605-19.264,19.264c-0.693,4.659,15.628,21.515,15.628,21.515
		s-55.809-48.853-57.95-46.177C800.907,451.252,800.907,451.252,800.907,451.252z"/>
	<path display="inline" fill="#161212" d="M952.769,404.053c0,0-0.535,13.913-10.167,23.545
		c-9.632,9.632-18.729,18.729-24.883,14.716c-6.154-4.013-8.294-22.742-0.535-33.712c7.759-10.97,10.167-18.729,18.996-18.996
		C945.01,389.337,952.769,404.053,952.769,404.053z"/>
	<path display="inline" fill="#161212" d="M903.539,458.099c0,0,1.605,9.097-14.448,23.01
		c-16.053,13.913-18.996,13.645-24.08,11.772c-5.084-1.873-17.659-11.772-13.11-19.532c4.548-7.759,16.588-16.588,24.615-20.334
		C884.542,449.27,898.455,453.55,903.539,458.099z"/>
	<path display="inline" opacity="0.5" fill="#965A5B" enable-background="new    " d="M881.867,385.591
		c0,0,6.154,22.207-2.676,31.036c-8.829,8.829-11.772,12.308-38.26,7.224c-3.478-5.084,13.378-4.281,24.08-15.518
		S875.981,387.732,881.867,385.591z"/>
	<path display="inline" fill="#7D6155" d="M898.99,427.865c0,0-10.97,3.478-6.421-6.421
		C897.117,411.544,902.513,427.28,898.99,427.865z"/>
	<path display="inline" fill="#7D6155" d="M888.696,438.44c0,0-3.956-10.378-9.406-4.59c-5.45,5.787-1.704,6.858,2.844,6.59
		C886.683,440.173,888.696,438.44,888.696,438.44z"/>
	<path display="inline" fill="#2F2823" d="M752.37,411.812c5.619,4.548,14.161,6.669,15.508,5.341
		c1.348-1.328,2.953,2.418,4.558,5.093c1.605,2.676,1.873,12.04,6.421,12.843c4.548,0.803,16.053,7.492,18.996,10.97
		c2.943,3.478,3.004,5.68,10.064,8.459c7.06,2.779,10.27,7.595,12.678,7.862c2.408,0.268-18.729-21.939-15.251-25.418
		c3.478-3.478,7.492,5.351,18.461,6.689c10.97,1.338,31.304-3.478,40.668-3.211c9.364,0.268,16.007-8.515,15.896-12.151
		c-0.111-3.635,1.679-4.889,1.679-4.889s7.794-0.4,11.297-4.924c3.503-4.524,2.7-18.704,2.7-18.704s0-28.896-3.479-34.515
		c3.746-2.14-4.548-18.461-4.548-18.461s25.85,5.516,30.45,13.861c0,0-5.3-20.283-11.721-24.028
		c-6.421-3.746-10.542-10.862-10.542-10.862s0.375-6.261-3.103-7.064c-3.478-0.803-11.455-1.388-10.945-2.968
		c0.51-1.58,1.848-7.199-4.306-8.537c-6.154-1.338-13.327-7.007-12.818-8.587c0.51-1.58-0.46-15.594-6.129-14.741
		c-5.669,0.853-8.612,5.936-9.147,4.866c-0.535-1.07,2.676-6.956-3.211-5.351c-5.886,1.605-9.632,5.886-11.505,4.548
		c-1.873-1.338-10.702-1.605-14.448-2.676c-3.746-1.07-7.491-4.281-10.97-2.943c-3.478,1.338-7.224,7.224-7.759,7.759
		c-0.535,0.535-4.43,4.132-8.235,7.283c-3.805,3.151-8.649,13.347-9.17,15.473c-0.521,2.126,0.282,8.28-1.056,11.758
		c-1.338,3.478-4.328,9.679-4.328,9.679s-8.515-0.582-10.656-0.582s-13.378,6.956-13.913,8.027c-0.535,1.07-6.154,9.9-9.097,9.632
		c-2.943-0.268-6.956,10.702-4.548,13.11c2.408,2.408,1.873,7.224,2.14,11.237c0.268,4.013-1.605,13.378,0.535,16.053
		c2.14,2.676,7.759,8.294,9.364,12.04C754.511,407.531,746.752,407.263,752.37,411.812z M829.426,425.725
		c1.338-5.084,0.268-17.391,5.619-15.786c5.351,1.605,13.566-0.066,14.943,2.509c1.378,2.575,5.452-6.729,8.498-8.498
		c3.046-1.77,6.557-6.229,8.548-8.548c1.99-2.319-0.15-4.994-2.826-7.135c-2.676-2.141-8.337-3.971-4.844-7.463
		c3.492-3.492,19.086-16.288,28.553-6.285c0,0,0.343,34.111-2.854,38.913s-13.41,13.41-13.41,13.41s-20.287,1.559-28.314,3.164
		S828.088,430.808,829.426,425.725z"/>
</g>
<g display="none">
	<path display="inline" fill="#2F2823" d="M101.795,346.528c0,0-18.996,7.759-21.672,13.645
		c-2.676,5.886-11.772,22.475-13.645,31.304s-5.084,32.374-5.351,39.598c-0.268,7.224,0.535,19.264,0.535,22.475
		c0,3.211,12.575,18.996,12.575,18.996c2.14,1.605,8.403,10.371,12.575,12.575c4.172,2.204,11.505,0.803,13.645,0.268
		c2.14-0.535,2.943,1.873,7.492,1.07s44.147,4.013,48.963,1.873c4.816-2.14,18.68,1.119,26.196-4.792
		c7.516-5.91,20.195-10.89,20.945-16.561c0.751-5.671-1.348-4.185,3.159-11.289c4.507-7.104,4.548-1.338,6.956-5.351
		c2.408-4.013,2.408-9.364,2.408-9.364"/>
	<path display="inline" fill="#BC917D" d="M175.361,294.879c0,0,22.207-16.856,20.334-28.361
		c-1.873-11.505,52.708-20.602,80.534,9.9s27.558,66.621,13.913,76.521c-7.286,4.434-7.759,0.803-11.505,2.943
		c-3.746,2.14-12.843,13.378-12.843,13.378l-19.264,21.404l-10.435,33.444c0,0,8.294,0.268,8.294,4.548s-18.194,25.15-31.304,25.418
		c-13.11,0.268-26.22,6.956-28.628,8.294c-2.408,1.338-11.237,12.843-21.137,16.321c-9.9,3.478-39.331,25.953-77.858-1.873
		s-16.801-82.619-12.681-89.737c4.119-7.118,18.567-22.636,20.975-28.255s18.461-18.461,18.461-18.461s-14.18-0.803-10.97-5.084
		c3.211-4.281,25.15-34.782,29.163-24.348c4.013,10.435,15.518,15.518,15.518,15.518L175.361,294.879z"/>
	<path display="inline" fill="#D37777" d="M210.58,451.252c0,0-56.344,50.993-61.428,52.331s-28.896-14.983-46.287-38.795
		c-17.391-23.812-17.391-18.996-19.532-19.532c-2.14-0.535-34.782-33.712-34.247-44.414c0.535-8.027,11.505-15.251,11.505-15.251
		l36.989-37.926c0,0,3.946,0.736-3.813,11.17s-29.431,31.571-29.431,31.571l-4.548,5.084c0,0,15.786-18.461,29.699-1.873
		s15.251,23.812,15.251,23.812s-5.351,21.404-5.351,27.291c0,5.886,8.562,8.562,8.562,8.562l7.747-5.096
		c0,0,21.369-4.757,31.159,5.788c11.93,7.334,18.571,14.605,19.264,19.264c0.693,4.659-15.628,21.515-15.628,21.515
		s55.809-48.853,57.95-46.177C210.58,451.252,210.58,451.252,210.58,451.252z"/>
	<path display="inline" fill="#161212" d="M58.719,404.053c0,0,0.535,13.913,10.167,23.545c9.632,9.632,18.729,18.729,24.883,14.716
		c6.154-4.013,8.294-22.742,0.535-33.712c-7.759-10.97-10.167-18.729-18.996-18.996C66.478,389.337,58.719,404.053,58.719,404.053z"
		/>
	<path display="inline" fill="#161212" d="M107.949,458.099c0,0-1.605,9.097,14.448,23.01c16.053,13.913,18.996,13.645,24.08,11.772
		c5.084-1.873,17.659-11.772,13.11-19.532c-4.548-7.759-16.588-16.588-24.615-20.334S113.032,453.55,107.949,458.099z"/>
	<path display="inline" opacity="0.5" fill="#965A5B" enable-background="new    " d="M129.621,385.591
		c0,0-6.154,22.207,2.676,31.036c8.829,8.829,11.772,12.308,38.26,7.224c3.478-5.084-13.378-4.281-24.08-15.518
		S135.507,387.732,129.621,385.591z"/>
	<path display="inline" fill="#7D6155" d="M112.497,427.865c0,0,10.97,3.478,6.421-6.421S108.975,427.28,112.497,427.865z"/>
	<path display="inline" fill="#7D6155" d="M122.791,438.44c0,0,3.956-10.378,9.406-4.59c5.45,5.787,1.704,6.858-2.844,6.59
		C124.805,440.173,122.791,438.44,122.791,438.44z"/>
	<path display="inline" fill="#2F2823" d="M258.582,403.785c1.605-3.746,7.224-9.364,9.364-12.04
		c2.14-2.676,0.268-12.04,0.535-16.053c0.268-4.013-0.268-8.829,2.14-11.237c2.408-2.408-1.605-13.378-4.548-13.11
		c-2.943,0.268-8.562-8.562-9.097-9.632c-0.535-1.07-11.772-8.027-13.913-8.027c-2.14,0-10.655,0.582-10.655,0.582
		s-2.99-6.2-4.328-9.679c-1.338-3.478-0.535-9.632-1.056-11.758c-0.521-2.126-5.365-12.322-9.17-15.473
		c-3.805-3.151-7.7-6.748-8.235-7.283c-0.535-0.535-4.281-6.421-7.759-7.759c-3.478-1.338-7.224,1.873-10.97,2.943
		c-3.746,1.07-12.575,1.338-14.448,2.676c-1.873,1.338-5.619-2.943-11.505-4.548c-5.886-1.605-2.676,4.281-3.211,5.351
		c-0.535,1.07-3.478-4.013-9.147-4.866c-5.669-0.853-6.639,13.16-6.129,14.741c0.51,1.58-6.664,7.249-12.818,8.587
		c-6.154,1.338-4.816,6.956-4.306,8.537c0.51,1.58-7.466,2.166-10.945,2.968c-3.478,0.803-3.103,7.064-3.103,7.064
		s-4.121,7.116-10.542,10.862c-6.421,3.746-11.721,24.028-11.721,24.028c4.6-8.346,30.45-13.861,30.45-13.861
		s-8.294,16.321-4.548,18.461c-3.478,5.619-3.479,34.515-3.479,34.515s-0.802,14.18,2.7,18.704
		c3.503,4.524,11.297,4.924,11.297,4.924s1.789,1.254,1.679,4.889c-0.111,3.635,6.532,12.418,15.896,12.151
		c9.364-0.268,29.699,4.548,40.668,3.211c10.97-1.338,14.983-10.167,18.461-6.689c3.478,3.478-17.659,25.685-15.251,25.418
		c2.408-0.268,5.619-5.083,12.678-7.862c7.06-2.779,7.121-4.98,10.064-8.459c2.943-3.478,14.448-10.167,18.996-10.97
		c4.548-0.803,4.816-10.167,6.421-12.843c1.605-2.676,3.211-6.421,4.558-5.093c1.348,1.328,9.89-0.793,15.508-5.341
		C264.736,407.263,256.977,407.531,258.582,403.785z M168.149,430.006c-8.027-1.605-28.314-3.164-28.314-3.164
		s-10.214-8.608-13.41-13.41s-2.854-38.913-2.854-38.913c9.468-10.003,25.061,2.793,28.553,6.285
		c3.492,3.492-2.169,5.323-4.844,7.463c-2.676,2.14-4.816,4.816-2.826,7.135c1.99,2.319,5.501,6.778,8.548,8.548
		c3.046,1.77,7.121,11.073,8.498,8.498c1.378-2.575,9.592-0.903,14.943-2.509c5.351-1.605,4.281,10.702,5.619,15.786
		C183.399,430.808,176.175,431.611,168.149,430.006z"/>
</g>
<path display="none" fill="#BC917D" d="M581.524,169.788c0,0,6.646,17.278,4.984,26.582c-1.661,9.304,1.329,31.9-8.64,35.223
	c-9.969,3.323-9.304-39.875-9.304-39.875L581.524,169.788z"/>
<path display="none" fill="#BC917D" d="M433.985,186.402c0,0-8.307-1.661-8.307,5.317s2.991,11.963,4.154,15.618
	c1.163,3.655-1.946,19.405,7.024,31.134c8.97,11.729,14.742-18.686,15.406-21.421C452.925,214.314,433.985,186.402,433.985,186.402z
	"/>
<path display="none" fill="#2F2823" d="M575.41,219.604c0,0,0.465-22.901,5.449-28.882s3.323-9.637,3.988-14.953
	s0-5.317,1.661-9.637c1.661-4.32,0.997-14.156,0-16.382s6.012-1.825,1.012-8.837c-5-7.013-4.628-9.007-5.146-10.336
	s4.799-9.304,2.473-13.956c-2.326-4.652-4.32-5.317-5.317-3.988c-0.997,1.329-8.64-10.966-8.64-10.966s-8.64-5.317-12.627-7.643
	c-3.988-2.326-32.897-21.932-58.484-16.947c-25.587,4.984-66.127,23.593-71.776,44.528s-4.32,45.525,0,56.823
	c4.32,11.298,5.317,20.602,6.314,23.593s2.239,22.523,3.612,27.045s6.357-7.772,6.357-7.772"/>
<path fill="#BC917D" d="M468.211,327.959l27.913,27.913l66.791-45.857l8.972-53.5c0,0,2.855-24.009,1.329-42.827
	c-0.581-7.171-5.431-13.617-5.981-17.651c-1.994-14.621,3.323-19.605-2.658-20.27s-8.64-2.658-8.972-3.988
	c-0.332-1.329,3.655,0.997,5.317,0s-12.96-7.311-13.956-10.633c-0.997-3.323,2.326,2.658,5.317,0
	c2.991-2.658-11.63-6.314-11.63-6.314s-14.289,2.991-17.279,11.963s-7.975,12.96-11.963,13.624c-3.988,0.665-2.832-2.658-3.576-4.32
	c-0.744-1.661-8.054,4.32-8.054,4.32l-11.63,1.661c0,0-10.301-7.643-11.63-10.301c-1.329-2.658-6.646,1.329-8.307-3.988
	c-1.661-5.317-6.314-2.326-7.643-5.317c-1.329-2.991-8.972-1.661-9.637,0.665c-0.665,2.326-8.64,4.32-10.301,6.978
	c-1.661,2.658-4.984,14.953-3.323,19.938c1.661,4.984,5.56,25.381,5.223,32.797l-4.226,15.386l14.953,53.832L468.211,327.959z"/>
<g>
	<path fill="#BC917D" d="M507.833,132.902c0,0-15.365-3.655-11.709,16.283C501.108,148.852,495.95,137.554,507.833,132.902z"/>
	<path fill="#BC917D" d="M522.375,139.216c0,0-5.836,0-7.072,3.323C514.068,145.861,522.375,139.216,522.375,139.216z"/>
	<path fill="#BC917D" d="M480.838,137.554c0,0-8.972,7.975-8.307,11.63C473.195,152.84,480.838,137.554,480.838,137.554z"/>
	<path fill="#BC917D" d="M485.49,149.184c0,0-1.329,12.627,2.991,19.273c4.32,6.646-1.854-13.492-1.592-18.708"/>
</g>
<path opacity="0.5" fill="#965A5B" enable-background="new    " d="M491.699,309.352c0,0,5.64,8.384,17.494,6.683
	c11.854-1.7,19.486-6.648,20.826-15.509s-42.537-0.976-42.359,4.173S491.699,309.352,491.699,309.352z"/>
<path fill="#2F2823" d="M584.847,249.205c0-3.988-4.652-0.997-6.978-4.32s2.326-3.988,2.326-7.643s-2.991-2.542-3.987-3.929
	c-0.997-1.387-0.332-10.692-0.997-16.008c-0.665-5.317-15.618,73.943-24.258,81.333c-8.64,7.39-1.329-3.243-10.301-5.237
	c-8.972-1.994-15.618-2.658-20.935-2.658c-5.317,0-41.869-3.323-45.525,11.63c-3.655,14.953-15.95-19.938-19.273-27.248
	c-3.323-7.311-13.956-34.559-12.627-46.521c1.329-11.963-1.994-5.981-3.988-2.658c0,0-1.661,16.282-4.652,19.273
	c-2.991,2.991,0,11.63,2.326,11.963c2.326,0.332-1.921,6.646-0.628,9.637c1.293,2.991-0.296,5.649,0,8.972
	s-7.865,13.292-2.954,16.283c4.911,2.991,5.908,1.994,8.899,6.646c2.991,4.652-0.332,3.988,0,8.307
	c0.332,4.32,1.329,18.276,4.32,21.931c2.991,3.655,1.994,7.311,4.652,13.292c2.658,5.981,2.326,9.637,7.311,11.298
	c4.984,1.661,1.661,0.997,3.988,6.978c2.326,5.981,4.32,8.64,7.643,9.637c3.323,0.997,1.329,2.326,5.649,5.981
	c4.32,3.655,9.304,4.652,12.96,2.991c3.655-1.661,11.298-4.32,12.295-3.987c0.997,0.332,3.323,0.997,6.978,1.661
	c3.655,0.665,10.604-1.329,10.618-2.326c0.015-0.997,4.335,6.21,7.99,5.431c3.655-0.779,11.63-2.773,12.96-6.76
	c1.329-3.988,2.326-7.975,6.314-8.64c3.988-0.665,8.972-2.326,10.301-5.649c1.329-3.323,7.975-8.307,8.64-10.634
	c0.665-2.326,3.655-8.972,7.975-11.298c4.32-2.326,7.31-8.307,6.978-11.63c-0.332-3.323-5.317-3.988-2.658-8.307
	c2.658-4.32,3.041-17.944,2.684-18.941c-0.357-0.997-3.348-3.323-2.351-7.643c0.997-4.32,5.317-9.637,5.981-13.624
	c0.665-3.987-1.661-10.301-3.323-11.63c-1.661-1.329-2.658-7.643-2.658-10.301S584.847,253.193,584.847,249.205z M528.357,319.984
	c-4.984-1.994-9.334-1.661-10.648-3.323c-1.314-1.661-13.76-0.665-16.011,1.329c-2.251,1.994-10.803,2.361-11.678,2.343
	c-0.874-0.017-8.849-4.135-6.856-8.39v-1.597c0,0,22.09-1.994,24.669-5.317c2.579-3.323,5.383,0,7.47,0
	c2.087,0,17.373,0.665,21.36,5.317S533.341,321.978,528.357,319.984z"/>
<g>
	<path fill="#2F2823" d="M518.777,240.898c0,0,37.825-18.941,43.474-14.621c5.649,4.32,1.329,6.99,1.329,6.99
		s-24.922,4.308-26.584,6.302c-1.661,1.994-17.498,8.307-18.22,5.649C518.055,242.559,518.777,240.898,518.777,240.898z"/>
	<path fill="#2F2823" d="M495.562,247.876c0,0,3.425-3.323,0-5.317c-3.425-1.994-32.003-11.63-39.978-12.96
		c-7.975-1.329-8.307-0.216-6.314,3.713s22.161,14.563,34.226,14.563S495.562,247.876,495.562,247.876z"/>
</g>
<path fill="#D37777" d="M434.981,199.361c0,0,3.655,37.882,4.652,39.211c0.997,1.329,3.323,2.658,7.643,2.658
	c4.32,0,43.198,1.329,50.177,4.32s17.85-1.329,17.85-1.329s34.985-7.975,53.925-7.311c6.646,0,4.32-8.64,4.32-8.64l2.658-28.91
	c0,0,1.994-8.64,3.655-7.975c1.661,0.665-2.991,49.844-2.991,49.844s0.332,2.109-4.652,5.375c0,0-1.994,24.864-24.258,26.526
	c-22.264,1.661-27.435,0-32.659-9.304c-5.223-9.304-6.526-8.64-7.702-8.64c-1.176,0-5.828,0.332-7.157,5.981
	c-1.329,5.649-8.972,14.621-23.925,15.286s-28.577-5.649-30.571-10.966c-1.994-5.317-2.658-13.292-6.646-14.289
	s-2.991-7.643-2.991-7.643s-4.984-35.556-3.655-42.534C433.985,194.044,434.981,199.361,434.981,199.361z"/>
<path fill="#161212" d="M538.99,271.802c0,0-24.62-0.997-21.282-19.273c3.67-9.304,45.207-13.624,48.53-7.643
	c3.655,9.304,0,16.615-5.317,20.602S545.636,271.137,538.99,271.802z"/>
<path display="none" fill="#161212" d="M469.208,245.218c0,0,25.919,0.665,27.248,7.975c1.329,7.311-3.323,16.615-13.624,18.609
	s-27.248,1.661-31.9-4.984s-6.978-13.292-3.655-18.941C451.534,244.986,463.89,244.903,469.208,245.218z"/>
<path fill="#78624E" d="M520.136,286.81c0,0-1.099,1.365-3.278,2.815c-1.078,0.736-2.435,1.468-3.995,2.048
	c-0.785,0.27-1.609,0.55-2.484,0.705c-0.867,0.186-1.78,0.258-2.694,0.275c-0.916-0.019-1.842-0.092-2.729-0.316
	c-0.893-0.191-1.729-0.545-2.504-0.925c-0.771-0.395-1.454-0.877-2.047-1.383c-0.285-0.266-0.583-0.5-0.827-0.77
	c-0.237-0.273-0.467-0.537-0.687-0.79c-0.398-0.535-0.765-1.019-1.013-1.494c-0.259-0.468-0.492-0.864-0.628-1.223
	c-0.293-0.703-0.437-1.106-0.437-1.106s0.309,0.312,0.807,0.859c0.233,0.285,0.587,0.574,0.932,0.941
	c0.348,0.367,0.808,0.71,1.254,1.119c0.486,0.369,1.008,0.756,1.585,1.113c0.578,0.356,1.219,0.655,1.881,0.94
	c0.336,0.131,0.688,0.238,1.038,0.35c0.366,0.068,0.717,0.192,1.093,0.242c0.739,0.142,1.509,0.197,2.282,0.203
	c1.549-0.002,3.124-0.25,4.59-0.618c1.463-0.382,2.825-0.85,3.986-1.304C518.579,287.573,520.136,286.81,520.136,286.81z"/>
</svg>
