<?xml version="1.0" encoding="utf-8"?>
<!-- Generator: Adobe Illustrator 17.0.1, SVG Export Plug-In . SVG Version: 6.00 Build 0)  -->
<!DOCTYPE svg PUBLIC "-//W3C//DTD SVG 1.1//EN" "http://www.w3.org/Graphics/SVG/1.1/DTD/svg11.dtd">
<svg version="1.1" id="Layer_1" xmlns="http://www.w3.org/2000/svg" xmlns:xlink="http://www.w3.org/1999/xlink" x="0px" y="0px"
	 width="50px" height="50px" viewBox="0 0 50 50" enable-background="new 0 0 50 50" xml:space="preserve">
<path id="path610" fill="#587EC0" d="M24.997,49.576c13.575,0,24.58-11.004,24.58-24.58c0-13.573-11.005-24.58-24.58-24.58
	c-13.576,0-24.58,11.007-24.58,24.58C0.417,38.573,11.42,49.576,24.997,49.576"/>
<path id="path630" fill="#FFFFFF" d="M19.003,20.79h2.568v-2.496c0-1.1,0.028-2.799,0.828-3.849
	c0.841-1.113,1.998-1.871,3.986-1.871c3.24,0,4.606,0.463,4.606,0.463l-0.643,3.805c0,0-1.071-0.31-2.068-0.31
	c-0.999,0-1.895,0.358-1.895,1.357v2.901h4.096l-0.285,3.716h-3.811v12.912h-4.814V24.506h-2.568V20.79z"/>
</svg>
