<?xml version="1.0" encoding="utf-8"?>
<!-- Generator: Adobe Illustrator 17.0.2, SVG Export Plug-In . SVG Version: 6.00 Build 0)  -->
<!DOCTYPE svg PUBLIC "-//W3C//DTD SVG 1.1//EN" "http://www.w3.org/Graphics/SVG/1.1/DTD/svg11.dtd">
<svg version="1.1" id="Layer_1" xmlns="http://www.w3.org/2000/svg" xmlns:xlink="http://www.w3.org/1999/xlink" x="0px" y="0px"
	 width="50px" height="50px" viewBox="0 0 50 50" enable-background="new 0 0 50 50" xml:space="preserve">
<path id="path610" fill="#59933E" d="M24.986,49.427c13.534,0,24.505-10.97,24.505-24.505c0-13.532-10.971-24.505-24.505-24.505
	c-13.535,0-24.505,10.973-24.505,24.505C0.481,38.457,11.45,49.427,24.986,49.427"/>
<path fill="#FFFFFF" d="M19.458,30.381c-0.025,1.655,0.339,2.959,1.091,3.911c0.752,0.953,1.993,1.454,3.723,1.504v-9.1
	c-1.028-0.276-2.049-0.608-3.065-0.997c-1.015-0.388-1.931-0.889-2.745-1.504c-0.815-0.614-1.473-1.385-1.975-2.313
	c-0.502-0.927-0.752-2.081-0.752-3.46c0-1.203,0.231-2.262,0.696-3.178c0.464-0.915,1.091-1.679,1.88-2.294
	c0.79-0.614,1.698-1.084,2.727-1.41c1.028-0.326,2.106-0.489,3.234-0.489V8.118h1.617v2.933c1.128,0,2.193,0.151,3.197,0.451
	c1.002,0.301,1.874,0.752,2.614,1.354c0.739,0.602,1.328,1.367,1.767,2.294c0.438,0.928,0.658,2.006,0.658,3.234h-4.288
	c-0.051-1.279-0.382-2.257-0.996-2.933c-0.614-0.677-1.598-1.015-2.952-1.015v7.936c1.128,0.3,2.231,0.652,3.31,1.053
	c1.078,0.401,2.031,0.915,2.858,1.542s1.491,1.404,1.993,2.331c0.502,0.928,0.752,2.068,0.752,3.422
	c0,1.405-0.232,2.627-0.695,3.667c-0.464,1.041-1.097,1.906-1.9,2.595c-0.803,0.69-1.743,1.217-2.821,1.58
	c-1.078,0.363-2.244,0.57-3.497,0.621v2.933h-1.617v-2.933c-1.354-0.025-2.595-0.239-3.723-0.64
	c-1.128-0.401-2.094-0.971-2.896-1.711c-0.803-0.739-1.423-1.648-1.862-2.727c-0.439-1.077-0.646-2.318-0.621-3.722H19.458z
	 M24.272,14.436c-1.354,0-2.401,0.282-3.14,0.846c-0.74,0.564-1.109,1.511-1.109,2.84c0,0.602,0.125,1.116,0.376,1.542
	c0.25,0.427,0.57,0.79,0.959,1.091c0.388,0.3,0.84,0.545,1.354,0.733c0.514,0.188,1.034,0.345,1.561,0.471V14.436z M25.889,35.796
	c1.354-0.1,2.463-0.495,3.328-1.184c0.865-0.689,1.297-1.787,1.297-3.291c0-0.702-0.131-1.291-0.395-1.767
	c-0.264-0.476-0.614-0.878-1.053-1.204c-0.439-0.326-0.935-0.589-1.486-0.79c-0.552-0.201-1.116-0.376-1.692-0.526V35.796z"/>
</svg>
