<?xml version="1.0" encoding="utf-8"?>
<!-- Generator: Adobe Illustrator 17.0.1, SVG Export Plug-In . SVG Version: 6.00 Build 0)  -->
<!DOCTYPE svg PUBLIC "-//W3C//DTD SVG 1.1//EN" "http://www.w3.org/Graphics/SVG/1.1/DTD/svg11.dtd">
<svg version="1.1" id="Layer_1" xmlns="http://www.w3.org/2000/svg" xmlns:xlink="http://www.w3.org/1999/xlink" x="0px" y="0px"
	 width="200px" height="200px" viewBox="0 0 49.305 40.539" enable-background="new 0 0 49.305 40.539" xml:space="preserve" class="hehe">

	 
<path fill="#FFFFFF" d="M44.19,24.775c0.125-0.211,0.249-0.422,0.367-0.639c1.293-2.377,1.975-5.071,1.975-7.792
	C46.532,7.332,39.199,0,30.188,0l-3.903,0l0,0H18.88C8.47,0,0,8.47,0,18.88v21.659h4.83V18.88c0-7.748,6.303-14.05,14.05-14.05
	h2.575v23.748c-3.226-3.492-7.84-5.683-12.959-5.683v4.83c7.067,0,12.815,5.748,12.815,12.814h0.144h4.687h0.144V4.83l3.903,0
	c6.349,0,11.514,5.165,11.514,11.514c0,1.918-0.481,3.815-1.39,5.487c-2.019,3.718-5.899,6.027-10.125,6.027h-0.287v4.83h0.287
	c4.095,0,7.961-1.529,10.914-4.177c3.013,3.067,3.373,9.258,3.373,12.029h4.83C49.305,36.19,48.583,28.879,44.19,24.775z"/>
</svg>
