<?xml version="1.0" encoding="utf-8"?>
<!-- Generator: Adobe Illustrator 17.0.1, SVG Export Plug-In . SVG Version: 6.00 Build 0)  -->
<!DOCTYPE svg PUBLIC "-//W3C//DTD SVG 1.1//EN" "http://www.w3.org/Graphics/SVG/1.1/DTD/svg11.dtd">
<svg version="1.1" id="Layer_1" xmlns="http://www.w3.org/2000/svg" xmlns:xlink="http://www.w3.org/1999/xlink" x="0px" y="0px"
	 width="50px" height="50px" viewBox="0 0 50 50" enable-background="new 0 0 50 50" xml:space="preserve">
<linearGradient id="path634_1_" gradientUnits="userSpaceOnUse" x1="0.4129" y1="24.9963" x2="49.5871" y2="24.9963" gradientTransform="matrix(4.489659e-11 1 -1 4.489659e-11 49.9963 -0.0037)">
	<stop  offset="0" style="stop-color:#F7991D"/>
	<stop  offset="1" style="stop-color:#EF3924"/>
</linearGradient>
<path id="path634" fill="url(#path634_1_)" d="M0.414,24.996c0,13.58,11.008,24.588,24.586,24.588s24.586-11.008,24.586-24.588
	S38.578,0.409,25,0.409S0.414,11.416,0.414,24.996"/>
<path id="path944" fill="#FFFFFF" d="M26.274,31.876c0.01,0.002,11.967,0.006,12.043,0.006c2.401,0,4.345-1.944,4.345-4.345
	s-1.944-4.345-4.345-4.345c-0.594,0-1.163,0.12-1.68,0.337c-0.345-3.915-3.629-6.988-7.636-6.988c-0.98,0-1.936,0.193-2.779,0.519
	c-0.328,0.127-0.415,0.258-0.418,0.511v13.79C25.807,31.627,26.014,31.849,26.274,31.876 M24.916,17.558
	c-0.26,0-0.474,0.214-0.478,0.478l-0.197,9.788l0.197,3.554c0.004,0.258,0.218,0.474,0.478,0.474s0.476-0.216,0.48-0.478v0.004
	l0.212-3.554l-0.212-9.788C25.391,17.772,25.175,17.558,24.916,17.558 M23.432,31.874c0.243,0,0.445-0.201,0.449-0.449v0.004
	l0.187-3.606l-0.187-8.975c-0.004-0.245-0.206-0.445-0.449-0.445c-0.243,0-0.445,0.199-0.449,0.445l-0.17,8.973
	c0,0.006,0.17,3.608,0.17,3.608C22.988,31.672,23.189,31.874,23.432,31.874 M22.568,27.823l-0.208-7.544
	c-0.006-0.233-0.189-0.415-0.418-0.415c-0.231,0-0.415,0.183-0.42,0.415l-0.187,7.544l0.187,3.629
	c0.004,0.231,0.189,0.413,0.42,0.413c0.228,0,0.411-0.183,0.418-0.418v0.004L22.568,27.823z M20.464,31.859
	c0.212,0,0.38-0.17,0.386-0.386v0.002l0.231-3.654l-0.231-7.827c-0.006-0.216-0.174-0.386-0.386-0.386
	c-0.214,0-0.384,0.17-0.388,0.386l-0.206,7.827l0.206,3.654C20.08,31.689,20.25,31.859,20.464,31.859 M18.996,31.864
	c0.195,0,0.351-0.158,0.357-0.355v0.002l0.251-3.689l-0.251-8.032c-0.006-0.199-0.162-0.355-0.357-0.355
	c-0.195,0-0.351,0.156-0.357,0.355l-0.224,8.032l0.224,3.689C18.645,31.706,18.8,31.864,18.996,31.864 M17.54,19.725
	c-0.179,0-0.322,0.143-0.328,0.326l-0.241,7.771l0.241,3.71c0.006,0.181,0.15,0.324,0.328,0.324c0.177,0,0.32-0.143,0.328-0.326
	v0.002l0.27-3.71l-0.27-7.771C17.859,19.868,17.716,19.725,17.54,19.725 M16.094,31.864c0.16,0,0.291-0.131,0.299-0.295v0.002
	l0.291-3.751l-0.291-7.17c-0.008-0.166-0.139-0.295-0.299-0.295c-0.16,0-0.291,0.129-0.297,0.295l-0.258,7.17l0.258,3.751
	C15.803,31.733,15.934,31.864,16.094,31.864 M15.242,27.819l-0.314-5.837c-0.008-0.147-0.125-0.266-0.268-0.266
	c-0.141,0-0.26,0.118-0.266,0.266l-0.276,5.837l0.276,3.774c0.006,0.147,0.125,0.264,0.266,0.264c0.143,0,0.26-0.116,0.268-0.266
	v0.002L15.242,27.819z M13.24,31.824c0.127,0,0.226-0.1,0.237-0.233l0.334-3.774l-0.334-3.589c-0.01-0.131-0.11-0.231-0.237-0.231
	c-0.127,0-0.231,0.1-0.239,0.233l-0.293,3.587l0.293,3.774C13.009,31.724,13.113,31.824,13.24,31.824 M11.829,31.762
	c0.108,0,0.197-0.085,0.208-0.201l0.351-3.743l-0.351-3.866c-0.01-0.118-0.1-0.206-0.208-0.206c-0.11,0-0.199,0.087-0.208,0.206
	l-0.312,3.866l0.312,3.743C11.63,31.677,11.719,31.762,11.829,31.762 M10.608,24.053c-0.012-0.1-0.087-0.174-0.179-0.174
	c-0.093,0-0.168,0.075-0.177,0.174l-0.33,3.764l0.33,3.627c0.008,0.102,0.083,0.174,0.177,0.174c0.091,0,0.166-0.073,0.177-0.172
	l0.376-3.629L10.608,24.053z M7.735,29.884c0.071,0,0.131-0.056,0.141-0.137l0.307-1.93l-0.307-1.963
	c-0.01-0.081-0.071-0.137-0.141-0.137c-0.073,0-0.131,0.056-0.141,0.139l-0.26,1.961l0.26,1.93
	C7.604,29.826,7.663,29.884,7.735,29.884z M9.042,31.062c0.075,0,0.135-0.058,0.145-0.141l0.397-3.103l-0.395-3.174
	c-0.012-0.083-0.073-0.141-0.147-0.141c-0.075,0-0.137,0.06-0.147,0.141l-0.347,3.174l0.347,3.103
	C8.905,31.004,8.967,31.062,9.042,31.062"/>
</svg>
