<?xml version="1.0" encoding="utf-8"?>
<!-- Generator: Adobe Illustrator 17.0.1, SVG Export Plug-In . SVG Version: 6.00 Build 0)  -->
<!DOCTYPE svg PUBLIC "-//W3C//DTD SVG 1.1//EN" "http://www.w3.org/Graphics/SVG/1.1/DTD/svg11.dtd">
<svg version="1.1" id="Layer_1" xmlns="http://www.w3.org/2000/svg" xmlns:xlink="http://www.w3.org/1999/xlink" x="0px" y="0px"
	 width="50px" height="50px" viewBox="0 0 50 50" enable-background="new 0 0 50 50" xml:space="preserve">
<path id="path610" fill="#7ECDEF" d="M24.997,49.576c13.575,0,24.58-11.004,24.58-24.58c0-13.573-11.005-24.58-24.58-24.58
	c-13.576,0-24.58,11.007-24.58,24.58C0.417,38.573,11.42,49.576,24.997,49.576"/>
<path id="path614" fill="#FFFFFF" d="M37.328,18.558c-0.905,0.402-1.88,0.673-2.901,0.795c1.043-0.624,1.844-1.614,2.22-2.794
	c-0.976,0.58-2.057,0.999-3.208,1.224c-0.919-0.981-2.233-1.594-3.687-1.594c-2.788,0-5.05,2.262-5.05,5.051
	c0,0.396,0.042,0.78,0.13,1.15c-4.198-0.211-7.92-2.22-10.413-5.278c-0.435,0.749-0.684,1.616-0.684,2.541
	c0,1.752,0.892,3.298,2.247,4.204c-0.828-0.025-1.607-0.254-2.289-0.63v0.062c0,2.448,1.741,4.49,4.054,4.953
	c-0.425,0.119-0.87,0.178-1.332,0.178c-0.325,0-0.643-0.03-0.949-0.09c0.642,2.006,2.507,3.468,4.719,3.506
	C18.455,33.192,16.277,34,13.911,34c-0.408,0-0.811-0.023-1.205-0.069c2.236,1.431,4.891,2.269,7.743,2.269
	c9.293,0,14.372-7.697,14.372-14.372c0-0.22-0.004-0.439-0.014-0.653C35.795,20.46,36.653,19.571,37.328,18.558"/>
</svg>
