<?xml version="1.0" encoding="utf-8"?>
<!-- Generator: Adobe Illustrator 17.0.1, SVG Export Plug-In . SVG Version: 6.00 Build 0)  -->
<!DOCTYPE svg PUBLIC "-//W3C//DTD SVG 1.1//EN" "http://www.w3.org/Graphics/SVG/1.1/DTD/svg11.dtd">
<svg version="1.1" id="Layer_1" xmlns="http://www.w3.org/2000/svg" xmlns:xlink="http://www.w3.org/1999/xlink" x="0px" y="0px"
	 width="50px" height="50px" viewBox="0 0 50 50" enable-background="new 0 0 50 50" xml:space="preserve">
	 
<g id="g632" transform="translate(213.6523,441.915)">
	<path id="path634" fill="#EA6851" d="M-188.653-392.332c13.58,0,24.588-11.008,24.588-24.586s-11.008-24.586-24.588-24.586
		c-13.58,0-24.586,11.008-24.586,24.586S-202.233-392.332-188.653-392.332"/>
	<path id="path638" fill="#FFFFFF" d="M-176.359-412.523v-8.791c0,0,0-4.237-4.238-4.237h-16.112c0,0-4.236,0-4.236,4.237v8.791
		c0,0,0,4.237,4.236,4.237h16.112C-180.598-408.286-176.359-408.286-176.359-412.523 M-183.879-416.906l-8.05,4.727v-9.456
		L-183.879-416.906z"/>
</g>
</svg>
